<svg width="184" height="32" viewBox="0 0 184 32" fill="none" xmlns="http://www.w3.org/2000/svg">
<path fill-rule="evenodd" clip-rule="evenodd" d="M23.9749 18.9975L18.9702 18.9975C16.7568 18.9975 14.9863 20.7945 15.0192 23.0076C15.0519 25.2121 16.8624 26.9965 19.0672 26.9975L28.0044 27.0013C30.1964 27.0022 31.9595 25.2401 31.9595 23.0487C31.9595 22.9692 31.9572 22.8903 31.9527 22.8119C31.9527 22.8071 31.9527 22.8023 31.9527 22.7975L31.9301 9.00837C31.9265 6.81572 30.145 5.01996 27.9525 4.99885C25.7686 4.97781 24 6.72578 23.9955 8.90961L23.9749 18.9975ZM9.94967 26.9454C7.88515 26.9454 6.19089 25.2719 6.16543 23.2076L6.04358 13.3289L4.04088 13.3246C1.83175 13.3198 0.022679 11.5252 0.000211239 9.31613C-0.0222565 7.1071 1.75039 5.32021 3.95952 5.32499L15.9595 5.35095C18.1686 5.35573 19.9777 7.15038 20.0002 9.3594C20.0226 11.5684 18.25 13.3553 16.0409 13.3505L13.52 13.3451L13.6417 23.2076C13.6672 25.2719 12.0142 26.9454 9.94967 26.9454Z" fill="#666CFF"/>
<path d="M40.8402 10.3438V8.45455H52.0973V10.3438H47.559V23H45.3715V10.3438H40.8402ZM59.9906 18.4759V12.0909H62.1213V23H60.0332V21.1108H59.9195C59.6686 21.6932 59.2661 22.1785 58.7122 22.5668C58.1629 22.9503 57.4787 23.142 56.6596 23.142C55.9588 23.142 55.3386 22.9882 54.7988 22.6804C54.2638 22.3679 53.8424 21.9062 53.5346 21.2955C53.2316 20.6847 53.0801 19.9295 53.0801 19.0298V12.0909H55.2036V18.7741C55.2036 19.5175 55.4096 20.1094 55.8215 20.5497C56.2335 20.9901 56.7685 21.2102 57.4267 21.2102C57.8244 21.2102 58.2197 21.1108 58.6127 20.9119C59.0105 20.7131 59.3395 20.4124 59.5999 20.0099C59.8651 19.6075 59.9953 19.0961 59.9906 18.4759ZM70.2169 12.0909V13.7955H64.2581V12.0909H70.2169ZM65.8561 9.47727H67.9797V19.7969C67.9797 20.2088 68.0413 20.5189 68.1644 20.7273C68.2875 20.9309 68.4461 21.0705 68.6402 21.1463C68.8391 21.2173 69.0545 21.2528 69.2865 21.2528C69.457 21.2528 69.6061 21.241 69.734 21.2173C69.8618 21.1937 69.9612 21.1747 70.0323 21.1605L70.4158 22.9148C70.2927 22.9621 70.1175 23.0095 69.8902 23.0568C69.6629 23.1089 69.3789 23.1373 69.0379 23.142C68.4792 23.1515 67.9584 23.0521 67.4754 22.8438C66.9925 22.6354 66.6019 22.3134 66.3036 21.8778C66.0053 21.4422 65.8561 20.8954 65.8561 20.2372V9.47727ZM77.194 23.2202C76.1713 23.2202 75.2787 22.9858 74.5164 22.517C73.7541 22.0483 73.1623 21.3925 72.7409 20.5497C72.3195 19.7069 72.1088 18.7221 72.1088 17.5952C72.1088 16.4635 72.3195 15.474 72.7409 14.6264C73.1623 13.7789 73.7541 13.1207 74.5164 12.652C75.2787 12.1832 76.1713 11.9489 77.194 11.9489C78.2167 11.9489 79.1092 12.1832 79.8715 12.652C80.6338 13.1207 81.2257 13.7789 81.6471 14.6264C82.0685 15.474 82.2792 16.4635 82.2792 17.5952C82.2792 18.7221 82.0685 19.7069 81.6471 20.5497C81.2257 21.3925 80.6338 22.0483 79.8715 22.517C79.1092 22.9858 78.2167 23.2202 77.194 23.2202ZM77.2011 21.4375C77.864 21.4375 78.4132 21.2623 78.8488 20.9119C79.2844 20.5616 79.6064 20.0952 79.8147 19.5128C80.0278 18.9304 80.1343 18.2888 80.1343 17.5881C80.1343 16.892 80.0278 16.2528 79.8147 15.6705C79.6064 15.0833 79.2844 14.6122 78.8488 14.2571C78.4132 13.902 77.864 13.7244 77.2011 13.7244C76.5335 13.7244 75.9795 13.902 75.5392 14.2571C75.1035 14.6122 74.7792 15.0833 74.5661 15.6705C74.3578 16.2528 74.2536 16.892 74.2536 17.5881C74.2536 18.2888 74.3578 18.9304 74.5661 19.5128C74.7792 20.0952 75.1035 20.5616 75.5392 20.9119C75.9795 21.2623 76.5335 21.4375 77.2011 21.4375ZM84.7996 23V12.0909H86.8521V13.8239H86.9658C87.1646 13.2367 87.515 12.7751 88.0169 12.4389C88.5235 12.098 89.0965 11.9276 89.7357 11.9276C89.8682 11.9276 90.0245 11.9323 90.2044 11.9418C90.3891 11.9512 90.5335 11.9631 90.6377 11.9773V14.0085C90.5524 13.9848 90.4009 13.9588 90.1831 13.9304C89.9653 13.8973 89.7475 13.8807 89.5297 13.8807C89.0278 13.8807 88.5804 13.9872 88.1874 14.2003C87.7991 14.4086 87.4914 14.6998 87.2641 15.0739C87.0368 15.4432 86.9232 15.8646 86.9232 16.3381V23H84.7996ZM92.462 23V8.45455H95.5373V20.4645H101.773V23H92.462ZM103.903 23V12.0909H106.928V23H103.903ZM105.423 10.6847C104.973 10.6847 104.587 10.5355 104.265 10.2372C103.948 9.93419 103.789 9.57197 103.789 9.15057C103.789 8.7339 103.948 8.37642 104.265 8.07812C104.587 7.77509 104.973 7.62358 105.423 7.62358C105.873 7.62358 106.256 7.77509 106.573 8.07812C106.895 8.37642 107.056 8.7339 107.056 9.15057C107.056 9.57197 106.895 9.93419 106.573 10.2372C106.256 10.5355 105.873 10.6847 105.423 10.6847ZM112.528 16.6932V23H109.502V12.0909H112.386V14.0156H112.513C112.755 13.3812 113.16 12.8793 113.728 12.5099C114.296 12.1359 114.985 11.9489 115.795 11.9489C116.552 11.9489 117.213 12.1146 117.776 12.446C118.34 12.7775 118.778 13.2509 119.09 13.8665C119.403 14.4773 119.559 15.2064 119.559 16.054V23H116.533V16.5938C116.538 15.9261 116.368 15.4053 116.022 15.0312C115.676 14.6525 115.2 14.4631 114.594 14.4631C114.187 14.4631 113.827 14.5507 113.515 14.7259C113.207 14.901 112.966 15.1567 112.79 15.4929C112.62 15.8243 112.532 16.2244 112.528 16.6932ZM124.835 19.8608L124.842 16.2315H125.282L128.777 12.0909H132.25L127.555 17.5739H126.838L124.835 19.8608ZM122.093 23V8.45455H125.119V23H122.093ZM128.912 23L125.701 18.2486L127.718 16.1108L132.456 23H128.912Z" fill="#4C4E64" fill-opacity="0.87"/>
</svg>
